<svg id="logo" data-name="logo" xmlns="http://www.w3.org/2000/svg" viewBox="0 0 150 42.02"><title>logo</title><path d="M18.41,0l7.5,0a.72.72,0,0,1,.74.69V.78c-.07.41-5.31,23.84-5.31,23.84a14.46,14.46,0,0,1-3.44,7.49c-1.64,1.66-3.37,2.29-6.88,2.47A12.94,12.94,0,0,1,3,32.48,13.49,13.49,0,0,1,.17,30.34c-.23-.21-.2-.37-.05-.63L3,24.85c.2-.22.27-.53.65-.29s.46.29,1.7,1.13a6.12,6.12,0,0,0,3,1.4,3.89,3.89,0,0,0,2.64-.67,5.12,5.12,0,0,0,1.42-2.53S17.44,1,17.5.78A1,1,0,0,1,18.41,0" fill="#c10017"/><path d="M30.17,8.69a20.63,20.63,0,0,1,7.91-1.57,11.53,11.53,0,0,1,5.16,1.07,7.07,7.07,0,0,1,3.18,3.43,9.68,9.68,0,0,1,.38,6l-1.75,8.87a12.89,12.89,0,0,0-.17,5.95c.11.52,0,1.73-1,1.73l-7.22,0a.71.71,0,0,1-.73-.63,16.81,16.81,0,0,1-.15-1.88A13.4,13.4,0,0,1,32.51,34a7.47,7.47,0,0,1-3.24.78,6.42,6.42,0,0,1-5.17-2.47,6.89,6.89,0,0,1-1.31-6q1.56-7.92,15.94-9.63a2.5,2.5,0,0,0-1.11-2.17,5.92,5.92,0,0,0-3.22-.73c-2,0-4.79,1.45-5.29,1.62a.92.92,0,0,1-1.31-.92c0-.3.62-3.13.71-3.55a2.87,2.87,0,0,1,1.66-2.23m7,12.43q-5.16.63-5.84,4.06a2.9,2.9,0,0,0,.4,2.31,2.13,2.13,0,0,0,1.84,1,2.91,2.91,0,0,0,2.31-1.14,6.23,6.23,0,0,0,1.3-2.86s.29-1.5.48-2.45-.27-.91-.49-.88" fill="#c10017"/><path d="M80.35,8.85a20.42,20.42,0,0,1,7.91-1.56,11.26,11.26,0,0,1,5.16,1.07,7,7,0,0,1,3.18,3.42,9.69,9.69,0,0,1,.38,6l-1.75,8.88a12.84,12.84,0,0,0-.17,5.94c.11.52,0,1.73-1,1.73-1.91,0-6.91,0-7.22,0a.71.71,0,0,1-.73-.63A16.81,16.81,0,0,1,86,31.82a13.4,13.4,0,0,1-3.27,2.32,7.33,7.33,0,0,1-3.24.78,6.39,6.39,0,0,1-5.17-2.47,6.87,6.87,0,0,1-1.31-6q1.56-7.93,15.94-9.64a2.5,2.5,0,0,0-1.11-2.16,5.82,5.82,0,0,0-3.22-.74c-2,0-4.79,1.46-5.29,1.62A.91.91,0,0,1,78,14.64c0-.3.62-3.14.71-3.56a2.89,2.89,0,0,1,1.66-2.23m7,12.43c-3.44.42-5.39,1.78-5.84,4.06a2.92,2.92,0,0,0,.4,2.32,2.14,2.14,0,0,0,1.84.95,2.93,2.93,0,0,0,2.32-1.14,6.31,6.31,0,0,0,1.29-2.86s.29-1.49.48-2.44-.27-.91-.49-.89" fill="#c10017"/><path d="M116.66,7.09a8.17,8.17,0,0,1,5.72,4.58,15,15,0,0,1,.69,9.17,21.59,21.59,0,0,1-2.65,7,16.76,16.76,0,0,1-4.45,5,9,9,0,0,1-5.36,1.84,5.79,5.79,0,0,1-2.48-.55A6.86,6.86,0,0,1,106,32.46l-1.53,8.88a.88.88,0,0,1-.78.68l-7,0c-.62,0-1-.54-.75-1.43.15-.65,4.23-21.72,4.48-22.89.54-2.51,1.77-6.34,4.54-8.54C109.08,5.86,114.78,6.55,116.66,7.09ZM107.3,25.88a2.81,2.81,0,0,0,.9,1.07,2.2,2.2,0,0,0,1.25.36,3.42,3.42,0,0,0,2.79-1.66A11.32,11.32,0,0,0,114,21.09a9.1,9.1,0,0,0,0-4.51A2,2,0,0,0,112.15,15a2.74,2.74,0,0,0-2.25,1.14,8.19,8.19,0,0,0-1.37,3.47Z" fill="#c10017"/><path d="M66.23,7.09A8.19,8.19,0,0,1,72,11.67a15,15,0,0,1,.68,9.17,21.14,21.14,0,0,1-2.65,7,16.63,16.63,0,0,1-4.45,5,9,9,0,0,1-5.35,1.84,5.72,5.72,0,0,1-2.48-.55,6.74,6.74,0,0,1-2.13-1.61L54,41.34a.88.88,0,0,1-.78.68l-7,0c-.62,0-.95-.54-.75-1.43.14-.65,4.22-21.72,4.48-22.89.54-2.51,1.77-6.34,4.53-8.54C58.66,5.86,64.36,6.55,66.23,7.09ZM56.88,25.88A2.88,2.88,0,0,0,57.77,27a2.23,2.23,0,0,0,1.26.36,3.42,3.42,0,0,0,2.79-1.66,11.47,11.47,0,0,0,1.78-4.56,9.22,9.22,0,0,0,0-4.51A2,2,0,0,0,61.73,15a2.76,2.76,0,0,0-2.26,1.14,8.19,8.19,0,0,0-1.36,3.47Z" fill="#c10017"/><path d="M139.83,7.86c3.63,0,6.37,1.19,8.24,3.53s2.38,5.61,1.55,9.81a17.43,17.43,0,0,1-5.27,9.74,13.94,13.94,0,0,1-9.84,3.76c-3.84,0-6.57-1.27-8.22-3.77s-2.09-5.69-1.33-9.54a17.43,17.43,0,0,1,5.29-9.79,13.65,13.65,0,0,1,9.58-3.74m-1.21,6.57a3.33,3.33,0,0,0-2.8,1.7A14.06,14.06,0,0,0,134,21.25a11.76,11.76,0,0,0-.19,5.07,2.06,2.06,0,0,0,2.12,1.7,3.33,3.33,0,0,0,2.8-1.68,13.69,13.69,0,0,0,1.81-5,11.89,11.89,0,0,0,.2-5.16,2.06,2.06,0,0,0-2.11-1.72" fill="#c10017"/></svg>
